# Wavefront Obj file
# 
# verts: 95 uv-s: 153
mtllib stone1_uv.mtl

g Group12244

v -0.472152 47.448689 0.132333
v -0.586822 47.083008 -0.962273
v 1.897764 44.617161 2.978608
v 0.689964 46.271786 1.898594
v 2.583546 43.201527 2.474441
v 3.725077 40.772530 1.781375
v -0.156648 46.166138 -1.480383
v -3.944452 44.523991 -6.489546
v 1.207064 42.768810 -3.608879
v -4.120550 42.343063 -8.931819
v 2.038931 40.528286 -5.145850
v 6.154173 35.693504 0.024101
v 4.439764 34.476990 -8.881218
v 6.269563 32.883583 -5.270960
v 6.294534 30.566597 -7.138779
v 6.347219 26.220968 -7.020244
v 6.270104 22.514372 -7.186390
v 6.293823 12.259515 -7.136395
v 6.328884 6.718960 -7.153597
v 6.355517 -1.997698 -6.915620
v 6.355089 -4.489788 -6.951478
v 2.425460 -5.533018 -11.051899
v 2.256649 -1.703329 -11.241890
v 2.140610 5.546070 -11.276464
v 2.175903 8.657000 -11.278719
v 2.340269 12.455527 -11.184622
v 2.252856 16.127306 -11.263371
v 2.187645 21.742659 -11.279304
v 2.090770 34.383320 -11.213237
v -3.504680 39.856239 -10.938396
v -4.481014 16.107206 -11.262965
v -3.944978 12.752373 -11.265253
v -3.785474 9.139173 -11.286210
v -3.862121 6.470393 -11.242788
v -3.928103 0.069496 -11.270501
v -5.535307 -6.906996 -11.209098
v -5.507923 -4.453228 -11.136260
v -7.905069 0.436356 -9.237746
v -7.546863 6.753201 -9.479321
v -7.472414 9.393451 -9.576621
v -7.451828 12.722289 -9.607971
v -7.265311 16.352486 -9.775050
v -5.722464 22.225006 -10.733846
v -5.436920 32.130333 -11.277410
v -5.535280 38.766930 -11.099050
v -9.939321 42.738129 -4.603364
v -10.217085 39.669655 -7.163138
v -11.695487 43.474651 0.823114
v -12.751200 40.768192 1.112758
v -13.164552 34.189213 -4.755304
v -13.627227 33.899239 -3.766115
v -13.260904 17.844723 -4.522030
v -12.012132 13.017990 -5.681987
v -12.640730 15.145725 -5.146447
v -12.754521 12.331541 -4.984927
v -12.875757 9.721652 -4.933692
v -13.170952 1.507977 -4.717253
v -13.376466 -6.837435 -4.296971
v -13.183467 -3.688574 -4.762215
v -12.801985 17.362226 -1.710635
v -11.343550 14.915698 -2.447126
v 6.259700 -4.858326 7.321873
v 6.338918 -2.343971 6.666355
v 6.335784 5.587563 6.683455
v 5.957948 11.621168 6.155231
v 6.179857 20.161310 6.973711
v 6.144608 24.609877 6.801682
v 2.957069 33.669895 7.576797
v -11.254303 44.272961 3.794186
v -10.070336 44.238708 4.274881
v -6.948828 42.429161 5.985426
v -1.258210 37.609112 7.952236
v -12.204800 41.443943 4.282352
v -11.168419 42.092625 5.278253
v -12.055864 34.254959 4.930670
v -7.334968 35.618671 8.391831
v -11.552248 20.286085 4.832269
v -7.107245 21.137465 8.378368
v -10.529802 17.904293 4.638436
v -7.169700 19.065369 8.377920
v -7.193473 17.007380 8.522595
v -6.674983 13.733444 8.475389
v -6.716814 5.581516 8.306417
v -6.466338 -1.801247 8.397257
v -6.598353 -7.242117 8.409936
v -11.956418 -7.157541 4.811064
v -13.510355 -6.789635 -2.764102
v -12.126996 -2.937712 4.784063
v -13.499513 -3.899096 -2.549777
v -12.198150 4.282917 4.801316
v -13.382215 0.774767 -1.969769
v -11.810443 16.289816 4.462499
v -12.006735 12.579383 5.130802
v -13.152830 9.462665 -0.840943
v -12.929597 13.254401 -1.647087
# 95 positions

vt 0.358640 0.535975
vt 0.205228 0.665339
vt 0.241169 0.718849
vt 0.401160 0.654722
vt 0.216094 0.536927
vt 0.399590 0.575219
vt 0.304491 0.128692
vt 0.328222 0.021230
vt 0.345305 0.052404
vt 0.057490 0.501060
vt 0.114322 0.452922
vt 0.145841 0.522911
vt 0.133778 0.539435
vt 0.156419 0.413582
vt 0.671168 0.487935
vt 0.685306 0.492970
vt 0.575977 0.538891
vt 0.646910 0.481013
vt 0.316821 0.734368
vt 0.332130 0.733031
vt 0.596187 0.463464
vt 0.485496 0.531150
vt 0.323421 0.009406
vt 0.286851 0.117086
vt 0.275919 0.115941
vt 0.293750 0.005000
vt 0.220720 0.082408
vt 0.239556 0.022539
vt 0.270745 0.120237
vt 0.700775 0.448439
vt 0.701830 0.482184
vt 0.666847 0.427182
vt 0.644471 0.411832
vt 0.568124 0.410583
vt 0.584037 0.374528
vt 0.741602 0.503147
vt 0.755730 0.538861
vt 0.802487 0.529846
vt 0.196329 0.080650
vt 0.213992 0.019765
vt 0.735452 0.527983
vt 0.249488 0.133856
vt 0.680089 0.521271
vt 0.688395 0.498895
vt 0.679570 0.582640
vt 0.656111 0.581704
vt 0.544985 0.391929
vt 0.501586 0.393113
vt 0.583102 0.351238
vt 0.464569 0.391454
vt 0.456862 0.350578
vt 0.400782 0.350737
vt 0.362154 0.391953
vt 0.364112 0.351524
vt 0.326177 0.350584
vt 0.295109 0.350607
vt 0.306822 0.391781
vt 0.219770 0.394158
vt 0.222710 0.350952
vt 0.184463 0.352849
vt 0.194882 0.393800
vt 0.441069 0.532869
vt 0.355780 0.524694
vt 0.295523 0.529970
vt 0.216312 0.529799
vt 0.191202 0.536346
vt 0.676228 0.981278
vt 0.755731 0.995000
vt 0.755457 0.970495
vt 0.677913 0.943032
vt 0.739679 0.925327
vt 0.679072 0.870633
vt 0.739022 0.861402
vt 0.678719 0.839565
vt 0.738255 0.834749
vt 0.677079 0.801629
vt 0.739848 0.798665
vt 0.677951 0.764960
vt 0.745201 0.765161
vt 0.678603 0.708880
vt 0.757600 0.704063
vt 0.754749 0.605140
vt 0.773008 0.762711
vt 0.774870 0.798965
vt 0.775077 0.832210
vt 0.775819 0.858578
vt 0.779397 0.921663
vt 0.834040 0.994305
vt 0.832112 0.962858
vt 0.831988 0.910961
vt 0.829039 0.828932
vt 0.827828 0.802868
vt 0.820414 0.796012
vt 0.826692 0.774763
vt 0.832885 0.747808
vt 0.831922 0.584578
vt 0.237852 0.302792
vt 0.226882 0.220142
vt 0.199851 0.223034
vt 0.207207 0.277228
vt 0.292584 0.278745
vt 0.295481 0.268866
vt 0.220132 0.188487
vt 0.191879 0.193363
vt 0.005000 0.491220
vt 0.015350 0.497699
vt 0.014493 0.519473
vt 0.291928 0.182013
vt 0.455814 0.276415
vt 0.460633 0.248338
vt 0.431432 0.182995
vt 0.482768 0.282651
vt 0.504017 0.288000
vt 0.510873 0.281038
vt 0.501657 0.247704
vt 0.485065 0.255694
vt 0.536937 0.280527
vt 0.539524 0.239653
vt 0.618967 0.278365
vt 0.626289 0.250926
vt 0.670864 0.278814
vt 0.672966 0.256719
vt 0.701834 0.258859
vt 0.702312 0.274168
vt 0.455220 0.184931
vt 0.471343 0.186688
vt 0.190193 0.053917
vt 0.062309 0.059337
vt 0.060991 0.005000
vt 0.189402 0.028807
vt 0.190162 0.133128
vt 0.059808 0.133068
vt 0.186389 0.193385
vt 0.060225 0.214480
vt 0.188605 0.278674
vt 0.055048 0.247176
vt 0.055285 0.267729
vt 0.188253 0.323101
vt 0.055909 0.288423
vt 0.053634 0.433044
vt 0.338242 0.010264
vt 0.006487 0.419425
vt 0.011517 0.279920
vt 0.021728 0.256133
vt 0.008938 0.240010
vt 0.006978 0.202954
vt 0.005067 0.120099
vt 0.005777 0.047987
vt 0.007480 0.005845
vt 0.663365 0.183477
vt 0.705508 0.183207
vt 0.591253 0.183304
vt 0.508398 0.180014
# 153 texture coordinates

vn 0.276695 0.960953 -0.003001
vn 0.320046 0.874734 -0.363885
vn 0.679681 0.584466 0.443208
vn 0.540783 0.770446 0.337589
vn 0.909870 0.400390 0.108742
vn 0.910611 0.395593 0.119557
vn 0.716385 0.555765 -0.421802
vn 0.018632 0.822701 -0.568169
vn 0.718412 0.556121 -0.417869
vn 0.035395 0.692406 -0.720640
vn 0.716118 0.555263 -0.422917
vn 0.952370 0.294440 0.079346
vn 0.765029 0.340622 -0.546542
vn 0.960258 0.235913 -0.149161
vn 0.920571 0.058139 -0.386225
vn 0.929749 0.005507 -0.368152
vn 0.924406 -0.000246 -0.381409
vn 0.927976 0.005062 -0.372605
vn 0.924593 0.009820 -0.380829
vn 0.929296 -0.004387 -0.369311
vn 0.775183 -0.562310 -0.287920
vn 0.390160 -0.634281 -0.667430
vn 0.385383 -0.013828 -0.922653
vn 0.380868 -0.003481 -0.924623
vn 0.380059 0.000048 -0.924962
vn 0.399840 -0.002400 -0.916582
vn 0.377375 0.008368 -0.926023
vn 0.367803 0.010406 -0.929845
vn 0.415936 0.230083 -0.879806
vn 0.157861 0.467360 -0.869859
vn -0.240067 -0.007803 -0.970725
vn -0.212210 -0.012011 -0.977150
vn -0.211471 -0.003092 -0.977379
vn -0.226008 -0.005312 -0.974111
vn -0.205209 0.017490 -0.978562
vn -0.205752 -0.665103 -0.717847
vn -0.344958 0.008295 -0.938581
vn -0.569330 0.018667 -0.821897
vn -0.546393 -0.000955 -0.837528
vn -0.543350 -0.006931 -0.839478
vn -0.551921 -0.016475 -0.833734
vn -0.567219 -0.002181 -0.823564
vn -0.367442 0.002557 -0.930043
vn -0.340422 0.000857 -0.940272
vn -0.351496 0.250152 -0.902150
vn -0.620106 0.671318 -0.405956
vn -0.702199 0.348203 -0.621025
vn -0.731648 0.656744 -0.182698
vn -0.975502 0.216010 -0.041658
vn -0.872304 0.132136 -0.470772
vn -0.995695 0.089122 -0.025467
vn -0.930641 -0.069354 -0.359301
vn -0.814615 0.077049 -0.574862
vn -0.928185 -0.244005 -0.280954
vn -0.880597 0.242662 -0.407018
vn -0.893895 0.023754 -0.447647
vn -0.892050 0.015816 -0.451659
vn -0.705842 -0.614813 -0.351842
vn -0.874133 0.002909 -0.485677
vn -0.937417 -0.272938 0.216229
vn -0.991474 0.074371 0.106995
vn 0.609123 -0.518868 0.599788
vn 0.775292 0.022576 0.631199
vn 0.749317 0.023259 0.661803
vn 0.765217 -0.000458 0.643773
vn 0.734137 -0.006275 0.678972
vn 0.752100 0.039880 0.657842
vn 0.530556 0.180805 0.828142
vn -0.571949 0.742145 0.349420
vn -0.116974 0.695519 0.708922
vn -0.022649 0.520258 0.853709
vn 0.172457 0.289625 0.941476
vn -0.881674 0.179657 0.436318
vn -0.479960 0.314009 0.819168
vn -0.849076 -0.005698 0.528239
vn -0.272094 0.104528 0.956576
vn -0.833830 -0.160668 0.528122
vn -0.270851 -0.061748 0.960639
vn -0.850613 0.006916 0.525746
vn -0.319672 0.015085 0.947408
vn -0.310308 0.076093 0.947586
vn -0.207058 -0.007508 0.978300
vn -0.214252 0.002131 0.976776
vn -0.220085 0.021189 0.975250
vn -0.099605 -0.656178 0.748003
vn -0.597571 -0.664025 0.449422
vn -0.759330 -0.650687 0.004918
vn -0.831417 -0.009887 0.555562
vn -0.999310 0.003505 0.036971
vn -0.833336 -0.004126 0.552752
vn -0.998830 0.012971 0.046587
vn -0.879367 0.339722 0.333620
vn -0.833246 0.034637 0.551816
vn -0.997383 0.038248 0.061355
vn -0.937104 0.342739 -0.066084
# 95 normals

usemtl Default
f 21/1/21 85/2/85 86/3/86 36/4/36
f 21/1/21 62/5/62 85/2/85
f 21/1/21 36/4/36 22/6/22
f 4/7/4 70/8/70 71/9/71
f 71/10/71 72/11/72 3/12/3 4/13/4
f 68/14/68 3/12/3 72/11/72
f 5/15/5 3/16/3 68/17/68 6/18/6
f 36/4/36 86/3/86 87/19/87 58/20/58
f 12/21/12 6/18/6 68/17/68 67/22/67
f 69/23/69 70/8/70 4/7/4 1/24/1
f 1/24/1 2/25/2 48/26/48 69/23/69
f 2/25/2 8/27/8 46/28/46 48/26/48
f 2/25/2 7/29/7 8/27/8
f 4/7/4 7/29/7 2/25/2 1/24/1
f 5/15/5 7/30/7 4/31/4 3/16/3
f 9/32/9 7/30/7 5/15/5 6/18/6
f 11/33/11 9/32/9 6/18/6 12/21/12
f 12/21/12 14/34/14 13/35/13 11/33/11
f 10/36/10 45/37/45 47/38/47
f 46/28/46 8/27/8 10/39/10 47/40/47
f 10/36/10 30/41/30 45/37/45
f 9/42/9 10/39/10 8/27/8 7/29/7
f 11/43/11 30/41/30 10/36/10 9/44/9
f 29/45/29 30/41/30 11/43/11 13/46/13
f 15/47/15 13/35/13 14/34/14
f 16/48/16 29/49/29 13/35/13 15/47/15
f 17/50/17 28/51/28 29/49/29 16/48/16
f 17/50/17 27/52/27 28/51/28
f 18/53/18 26/54/26 27/52/27 17/50/17
f 18/53/18 25/55/25 26/54/26
f 24/56/24 25/55/25 18/53/18 19/57/19
f 19/57/19 20/58/20 23/59/23 24/56/24
f 22/60/22 23/59/23 20/58/20 21/61/21
f 14/34/14 12/21/12 67/22/67
f 16/48/16 15/47/15 14/34/14 67/22/67
f 17/50/17 16/48/16 67/22/67 66/62/66
f 18/53/18 17/50/17 66/62/66 65/63/65
f 19/57/19 18/53/18 65/63/65 64/64/64
f 20/58/20 19/57/19 64/64/64 63/65/63
f 62/66/62 21/61/21 20/58/20 63/65/63
f 22/67/22 36/68/36 37/69/37
f 23/70/23 22/67/22 37/69/37 35/71/35
f 24/72/24 23/70/23 35/71/35 34/73/34
f 25/74/25 24/72/24 34/73/34 33/75/33
f 26/76/26 25/74/25 33/75/33 32/77/32
f 27/78/27 26/76/26 32/77/32 31/79/31
f 28/80/28 27/78/27 31/79/31 43/81/43
f 29/45/29 28/80/28 43/81/43 44/82/44
f 44/82/44 45/37/45 30/41/30 29/45/29
f 31/79/31 42/83/42 43/81/43
f 32/77/32 41/84/41 42/83/42 31/79/31
f 33/75/33 40/85/40 41/84/41 32/77/32
f 34/73/34 39/86/39 40/85/40 33/75/33
f 35/71/35 38/87/38 39/86/39 34/73/34
f 37/69/37 38/87/38 35/71/35
f 37/69/37 36/68/36 58/88/58 59/89/59
f 38/87/38 37/69/37 59/89/59 57/90/57
f 39/86/39 38/87/38 57/90/57 56/91/56
f 40/85/40 39/86/39 56/91/56 55/92/55
f 41/84/41 40/85/40 55/92/55 53/93/53
f 42/83/42 41/84/41 53/93/53 54/94/54
f 43/81/43 42/83/42 54/94/54 52/95/52
f 44/82/44 43/81/43 52/95/52 50/96/50
f 47/38/47 45/37/45 44/82/44 50/96/50
f 47/97/47 49/98/49 48/99/48 46/100/46
f 50/101/50 51/102/51 49/98/49 47/97/47
f 49/98/49 73/103/73 69/104/69 48/99/48
f 73/105/73 74/106/74 69/107/69
f 51/102/51 75/108/75 73/103/73 49/98/49
f 52/109/52 60/110/60 51/102/51 50/101/50
f 60/110/60 77/111/77 75/108/75 51/102/51
f 54/112/54 60/110/60 52/109/52
f 53/113/53 55/114/55 95/115/95 61/116/61
f 60/110/60 54/112/54 53/113/53 61/116/61
f 56/117/56 94/118/94 95/115/95 55/114/55
f 57/119/57 91/120/91 94/118/94 56/117/56
f 59/121/59 89/122/89 91/120/91 57/119/57
f 87/123/87 89/122/89 59/121/59 58/124/58
f 79/125/79 77/111/77 60/110/60 61/116/61
f 92/126/92 79/125/79 61/116/61 95/115/95
f 63/127/63 84/128/84 85/129/85 62/130/62
f 64/131/64 83/132/83 84/128/84 63/127/63
f 65/133/65 82/134/82 83/132/83 64/131/64
f 66/135/66 81/136/81 82/134/82 65/133/65
f 80/137/80 81/136/81 66/135/66 67/138/67
f 78/139/78 80/137/80 67/138/67 68/14/68
f 72/11/72 76/140/76 78/139/78 68/14/68
f 71/9/71 70/8/70 69/23/69 74/141/74
f 74/106/74 76/140/76 72/11/72 71/10/71
f 75/142/75 76/140/76 74/106/74 73/105/73
f 78/139/78 76/140/76 75/142/75 77/143/77
f 80/137/80 78/139/78 77/143/77 79/144/79
f 81/136/81 80/137/80 79/144/79 92/145/92
f 82/134/82 81/136/81 92/145/92 93/146/93
f 83/132/83 82/134/82 93/146/93 90/147/90
f 84/128/84 83/132/83 90/147/90 88/148/88
f 86/149/86 85/129/85 84/128/84 88/148/88
f 88/150/88 89/122/89 87/123/87 86/151/86
f 90/152/90 91/120/91 89/122/89 88/150/88
f 93/153/93 94/118/94 91/120/91 90/152/90
f 95/115/95 94/118/94 93/153/93 92/126/92

# 101 faces
