# Wavefront Obj file
# 
# verts: 42 uv-s: 78
mtllib stone6_uv.mtl

g RetopoGroup1

v -14.508684 6.977399 -14.678720
v -14.698462 -8.980825 -14.684283
v -14.542110 -8.331524 9.949936
v -14.484428 2.696363 10.120435
v -14.522243 10.673836 3.447209
v -14.492186 9.291979 -13.031736
v -12.729143 5.138545 10.071570
v 3.548521 9.598721 4.718379
v -14.470238 11.335701 -8.984873
v -14.556368 10.641750 2.072031
v -14.531935 -10.704649 10.078785
v -14.541780 -15.914888 1.061893
v -14.542383 13.108416 -6.172720
v -14.542564 12.285851 0.871567
v -14.374319 -15.038664 -9.744740
v 1.992663 -9.146318 10.091928
v 3.321414 5.207867 9.913482
v 0.464316 -10.876688 9.891725
v 5.075993 2.928204 8.771260
v 5.269228 8.333096 4.897053
v 2.742429 7.086560 -14.416656
v 3.220044 -8.106069 -14.564040
v 3.463016 -14.720861 -10.337943
v 2.966270 -15.815468 1.141230
v 5.288419 -13.563208 1.798808
v 3.872818 -11.259356 8.398289
v 2.348877 -11.385391 9.144292
v 3.977302 -14.930344 1.468375
v 5.288595 -13.006783 -9.926836
v 5.408021 -7.450298 -13.478969
v 5.045586 6.642739 -12.855794
v 1.691247 9.211500 -13.144750
v 3.946874 9.312353 -11.408114
v -6.312702 10.200905 -11.498051
v -7.392272 12.549124 -6.172896
v -7.823472 12.087175 0.621066
v -6.379984 10.210840 1.113009
v -14.558422 11.465986 1.524554
v -7.134882 10.913078 1.225395
v -7.105058 11.792822 -7.999338
v -7.686536 10.294464 2.013621
v 1.406205 9.745964 -12.176135
# 42 positions

vt 0.105362 0.614438
vt 0.341145 0.623192
vt 0.317887 0.986779
vt 0.154866 0.983188
vt 0.040706 0.880178
vt 0.070253 0.637487
vt 0.110921 0.990000
vt 0.728246 0.643132
vt 0.853669 0.682335
vt 0.836000 0.916675
vt 0.738686 0.905238
vt 0.434855 0.859679
vt 0.352875 0.990000
vt 0.037780 0.696123
vt 0.041829 0.859867
vt 0.029958 0.851316
vt 0.018212 0.841208
vt 0.010000 0.736679
vt 0.428047 0.699513
vt 0.395310 0.313017
vt 0.391474 0.068840
vt 0.602742 0.049841
vt 0.559455 0.313017
vt 0.360006 0.311518
vt 0.364447 0.089658
vt 0.596157 0.287624
vt 0.840846 0.962339
vt 0.747414 0.935740
vt 0.687970 0.332353
vt 0.664962 0.584892
vt 0.446513 0.579997
vt 0.437128 0.320202
vt 0.334113 0.595840
vt 0.320740 0.332353
vt 0.637892 0.319744
vt 0.638863 0.046257
vt 0.804536 0.076913
vt 0.803977 0.328583
vt 0.952966 0.097561
vt 0.958387 0.319744
vt 0.812971 0.058829
vt 0.821963 0.032316
vt 0.928011 0.045026
vt 0.939614 0.068210
vt 0.356295 0.059407
vt 0.357449 0.034010
vt 0.569488 0.017903
vt 0.649442 0.010000
vt 0.453061 0.616679
vt 0.356056 0.626510
vt 0.661562 0.626165
vt 0.703893 0.578664
vt 0.709484 0.621483
vt 0.731169 0.339000
vt 0.494348 0.788458
vt 0.486668 0.910180
vt 0.432848 0.682021
vt 0.497968 0.658902
vt 0.552081 0.643132
vt 0.568602 0.744604
vt 0.542030 0.757604
vt 0.663022 0.728804
vt 0.676567 0.744898
vt 0.672983 0.634325
vt 0.690428 0.637106
vt 0.692730 0.740933
vt 0.678712 0.759715
vt 0.706522 0.640402
vt 0.501391 0.902057
vt 0.514289 0.939432
vt 0.334379 0.309878
vt 0.305649 0.047779
vt 0.348888 0.068030
vt 0.010000 0.268787
vt 0.255291 0.368349
vt 0.044714 0.368349
vt 0.097114 0.041613
vt 0.015730 0.095333
# 78 texture coordinates

vn -0.639435 0.222705 -0.735884
vn -0.639513 -0.241201 -0.729962
vn -0.714354 -0.007046 0.699749
vn -0.697801 0.105513 0.708478
vn -0.621926 0.739046 0.258881
vn -0.660296 0.557481 -0.503214
vn -0.244774 0.448246 0.859745
vn 0.349105 0.880637 0.320320
vn -0.711231 0.623173 -0.325279
vn -0.797919 0.549615 0.247483
vn -0.596989 -0.405954 0.691958
vn -0.638846 -0.752147 0.161710
vn -0.625845 0.763641 -0.158655
vn -0.618914 0.667908 0.413334
vn -0.614256 -0.691962 -0.379312
vn 0.294518 -0.102070 0.950179
vn 0.331101 0.416676 0.846613
vn 0.086990 -0.509380 0.856134
vn 0.861220 0.081924 0.501586
vn 0.869646 0.437019 0.229632
vn 0.295666 0.319478 -0.900286
vn 0.274540 -0.279729 -0.919989
vn 0.343441 -0.817541 -0.462251
vn 0.256882 -0.946565 0.195006
vn 0.865521 -0.469558 0.174324
vn 0.728111 -0.415321 0.545310
vn 0.343584 -0.624676 0.701234
vn 0.520004 -0.823438 0.227037
vn 0.862691 -0.410658 -0.295169
vn 0.841247 -0.122866 -0.526505
vn 0.836701 0.260833 -0.481557
vn 0.197434 0.730455 -0.653800
vn 0.570918 0.783648 -0.244844
vn 0.079168 0.936315 -0.342121
vn 0.523673 0.845224 -0.106596
vn 0.442305 0.785552 0.432751
vn 0.367173 0.924191 0.105146
vn -0.684427 0.436230 0.584178
vn 0.592337 0.598929 0.538907
vn 0.503504 0.827934 -0.247001
vn 0.137240 0.893185 0.428235
vn 0.105730 0.960778 -0.256373
# 42 normals

usemtl Default
f 1/1/1 2/2/2 3/3/3 4/4/4
f 1/1/1 4/4/4 5/5/5 6/6/6
f 4/4/4 7/7/7 5/5/5
f 5/8/5 7/9/7 17/10/17 8/11/8
f 3/3/3 12/12/12 11/13/11
f 9/14/9 10/15/10 38/16/38 14/17/14 13/18/13
f 10/15/10 9/14/9 6/6/6 5/5/5
f 2/2/2 15/19/15 12/12/12 3/3/3
f 3/20/3 16/21/16 17/22/17 4/23/4
f 3/20/3 11/24/11 18/25/18 16/21/16
f 4/23/4 17/22/17 7/26/7
f 8/11/8 17/10/17 19/27/19 20/28/20
f 1/29/1 21/30/21 22/31/22 2/32/2
f 2/32/2 22/31/22 23/33/23 15/34/15
f 15/35/15 23/36/23 24/37/24 12/38/12
f 12/38/12 24/37/24 18/39/18 11/40/11
f 28/41/28 25/42/25 26/43/26 27/44/27
f 16/21/16 18/25/18 27/45/27
f 16/21/16 26/46/26 19/47/19 17/22/17
f 27/44/27 18/39/18 24/37/24 28/41/28
f 27/45/27 26/46/26 16/21/16
f 25/42/25 28/41/28 23/36/23 29/48/29
f 23/36/23 28/41/28 24/37/24
f 23/33/23 22/31/22 30/49/30 29/50/29
f 22/31/22 21/30/21 31/51/31 30/49/30
f 21/30/21 32/52/32 33/53/33 31/51/31
f 21/30/21 1/29/1 6/54/6 32/52/32
f 34/55/34 32/56/32 6/57/6
f 6/57/6 9/58/9 34/55/34
f 9/58/9 13/59/13 35/60/35 40/61/40
f 40/61/40 35/60/35 36/62/36 39/63/39
f 35/60/35 13/59/13 14/64/14 36/62/36
f 39/63/39 36/62/36 14/64/14 38/65/38
f 41/66/41 37/67/37 39/63/39
f 39/63/39 37/67/37 34/55/34 40/61/40
f 40/61/40 34/55/34 9/58/9
f 41/66/41 10/68/10 5/8/5 8/11/8 37/67/37
f 39/63/39 38/65/38 10/68/10 41/66/41
f 42/69/42 33/70/33 32/56/32
f 32/56/32 34/55/34 42/69/42
f 42/69/42 34/55/34 37/67/37
f 33/70/33 42/69/42 37/67/37 8/11/8
f 8/11/8 20/28/20 33/70/33
f 20/71/20 31/72/31 33/73/33
f 25/74/25 19/75/19 26/76/26
f 20/71/20 19/75/19 30/77/30 31/72/31
f 19/75/19 25/74/25 29/78/29 30/77/30

# 47 faces
